<?xml version="1.0" encoding="utf-8"?>
<!-- Generator: Adobe Illustrator 26.0.3, SVG Export Plug-In . SVG Version: 6.00 Build 0)  -->
<svg version="1.1" id="Слой_1" xmlns="http://www.w3.org/2000/svg" xmlns:xlink="http://www.w3.org/1999/xlink" x="0px" y="0px"
	 viewBox="0 0 309 124" style="enable-background:new 0 0 309 124;" xml:space="preserve">
<style type="text/css">
	.st0{fill:#CEA244;}
</style>
<g id="Слой_1_00000139978468317442758990000003789716778312188049_">
	
		<image style="display:none;overflow:visible;enable-background:new    ;" width="945" height="945" xlink:href="EB676EA1.jpeg"  transform="matrix(0.9185 0 0 0.9185 -272 -286)">
	</image>
	<g>
		<path class="st0" d="M184.8,103.7c-3.6-2.2-9.2-4.5-11.4-4.5s-7.9,1.1-7.9,1.1s-1.1,1.1-0.8,1.1c0.8,0,3-1.1,6.4,0
			c3.2,1.1,3.4,2.2,3.4,2.2s0,0-3.4-1.1s-3.9,1.1-3.9,1.1s0.6,0,1.7,2.2c0.8,1.6,1.4,2.5,1.8,2.9c-0.3-0.3-0.9-0.8-1.8-1.8
			c-1.6-1.6-4.5-4.5-5.1-4.2c0,0-0.5,0.6-0.5,0.8c-0.2,1.1,0,2.2,1.1,4.5c1.1,2.2,1.1,1.1,3.4,4.5c2.2,3.4,1.1,3.4,4.5,3.4
			c3.4,0,3.4-2.2,6.7-3.4s6.7-1.1,7.9-2.2C187.9,109.3,188.3,105.9,184.8,103.7z"/>
		<path class="st0" d="M32,73.4c-1.2,0-2.2,1-2.2,2.2s1,2.2,2.2,2.2c1.2,0,2.2-1,2.2-2.2C34.2,74.4,33.2,73.4,32,73.4z M32,76.4
			c-0.4,0-0.8-0.3-0.8-0.8c0-0.4,0.3-0.8,0.8-0.8c0.4,0,0.8,0.3,0.8,0.8C32.8,76,32.4,76.4,32,76.4z"/>
		<path class="st0" d="M94.9,90.2c-4.4-3.4-9.1-4.5-9.1-4.5s-2.2,2.2-3.4,3.4c-1.1,1.1-4.5,1.1-4.5,1.1s1.1,4.5,2.2,7.8
			c1.1,3.4,2.2,6.7,4.5,11.2c2.2,4.5,4.5,4.5,6.7,4.5c2.2,0,6.7-3.4,9-10.1C102.7,96.9,99.3,93.6,94.9,90.2z M99.3,100.3
			c0,2.2,0,4.5-3.4,7.8c-3.4,3.4-7.8,3.4-10.1,0c-2.2-3.4-3.4-12.3-3.4-12.3s1.1,2.2,2.2,4.5c1.1,2.2,4.5,4.5,4.5,4.5
			s-1.1-1.1-2.2-3.4c-1.1-2.2,0-3.4,0-3.4s0,1.1,1.1,2.2c1.1,1.1,2.2,2.2,2.2,2.2s-1.1-2.2-1.1-3.4c0-1.1,0-2.2,0-2.2s1.1,0,2.2,1.1
			c1.1,1.1,1.1,3.4,1.1,3.4s0-1.1,0-2.2c0-1.1-1.1-3.4-1.1-3.4c1.1,1.1,3.4,3.4,3.4,3.4s0,0-1.1-2.2s-2.2-4.5-2.2-4.5s0,0,2.2,1.1
			c1.6,0.8,2.6,2.1,3,2.8l-3-5.1c0,0,3.8,3.1,4.5,4.5C99.3,98.1,99.3,98.1,99.3,100.3z"/>
		<path class="st0" d="M245.9,67.7c-0.6-2.2-1.6-7.2-0.8-12.2c0.7-4.2,1-6.2,1.1-7.1c0-0.5,0.1-0.8,0.1-0.8s0,0.2-0.1,0.8
			c-0.2,2.7-0.9,11.9,0.1,13.8c0,0,0,0.1,0.1,0.1c0.1-1,0.2-1.9,0.4-2.9c0.8-4.1,1.1-6.1,1.3-7.1c0.1-0.5,0.1-0.8,0.1-0.8
			s0,0.2-0.1,0.8c-0.2,1.5-0.6,5.1-0.7,8.3c0.2-1.2,0.5-2.4,0.9-3.6c1.4-4,2-5.9,2.3-6.8c0.1-0.5,0.2-0.7,0.2-0.7s0,0.2-0.2,0.7
			c-0.6,2.3-2.5,9.7-2.4,12.8c0.5-1.3,1-2.3,1.6-3.2c0.8-1.4,2.7-3,2.7-3s0,0-1.6,2.7c-0.5,0.8-1,2.1-1.4,3.5
			c0.9-1.3,1.7-2.2,2.6-3.1c1.1-1.1,3.4-2.2,3.4-2.2s0,0-2.2,2.2c-1.4,1.4-3.1,4.4-4.3,6.5c0.1,0.6,0,1,0,1l-0.4,0.7
			c0,0.1,0.1,0.2,0.1,0.3c1-0.1,3.2-0.5,4-2.2c1.1-2.2,5.6-4.5,9-7.8s0-6.7-3.4-9s-3.4-6.7-5.6-10.1s-3.4-2.2-5.6,1.1
			c-2.2,3.4-5.6,12.3-5.6,18s3.4,9,3.4,9L245.9,67.7z"/>
		<path class="st0" d="M81.3,45.3c1.1-1.1,3.4-3.4,3.4-3.4s0,1.1,0,3.4c0,2.2,0,3.4,2.2,2.2s4.5-2.2,3.4-4.5
			c-1.1-2.2-5.6-3.4-5.6-3.4s-1.1,0-3.4,2.2c-2.2,2.2-4.5,3.4-4.5,3.4S80.2,46.5,81.3,45.3z"/>
		<path class="st0" d="M98.2,44.2c1.1-1.1,3.4-3.4,3.4-3.4s0,1.1,0,3.4c0,2.2,0,3.4,2.2,2.2s5.6-2.2,4.5-4.5s-5.6-3.4-5.6-3.4
			s-2.2,0-4.5,2.2c-2.2,2.2-5.6,3.4-5.6,3.4S97.1,45.3,98.2,44.2z"/>
		<path class="st0" d="M118.8,41.5c0.3-0.3,0.7-0.1,0.7,0.3v2.2c0,0.6,0.6,1.1,1.2,0.8c1.3-0.5,3.4-1.3,4.6-2
			c0.6-0.3,0.5-1.1-0.1-1.4c-1.4-0.7-3.8-2.1-4.6-2.9c-1.1-1.1-3.4,2.2-5.6,3.4s-4.5,2.2-4.5,2.2s3.4,0,4.5,0
			C117.2,44.2,117.7,42.5,118.8,41.5z"/>
		<path class="st0" d="M135.6,42.8c0.3-0.2,0.7,0,0.7,0.4l-0.3,2.2c-0.1,0.6,0.4,1.1,1.1,1c1.4-0.3,3.6-0.8,4.8-1.3
			c0.6-0.2,0.7-1,0.2-1.4c-1.3-0.9-3.5-2.6-4.2-3.5c-0.9-1.3-3.7,1.7-6,2.5c-2.4,0.8-4.8,1.6-4.8,1.6s3.3,0.5,4.4,0.7
			C133.7,45.2,134.4,43.6,135.6,42.8z"/>
		<path class="st0" d="M152.5,45c0.4-0.4,1.1,0,1,0.8l-0.3,2.2c-0.1,0.4,0.2,0.6,0.6,0.5c2.4-1,4.7-0.3,6.1-0.9
			c0.6-0.2,0-1.7-0.5-2.1c-1.3-0.9-3.5-2.6-4.2-3.5c-0.9-1.3-3.7,1.7-6,2.5c-2.4,0.8-4.8,1.6-4.8,1.6s3.3,0.5,4.4,0.7
			C150.8,47,151.6,45.8,152.5,45z"/>
		<path class="st0" d="M170.1,48c0.5-0.4,1.1,0.1,0.9,0.9l-0.5,2.2c-0.1,0.4,0.2,0.6,0.5,0.5c2.4-0.8,4.7,0,6.2-0.5
			c0.6-0.2,0.1-1.7-0.4-2.1c-1.2-1-3.3-2.8-3.9-3.8c-0.9-1.3-3.8,1.5-6.2,2.1s-4.9,1.2-4.9,1.2s3.3,0.7,4.4,1
			C168.3,49.9,169.1,48.8,170.1,48z"/>
		<path class="st0" d="M196.5,54.3c0.8,0,1.5,0.7,1.5,1.5v1.9c0,0.6,0.5,1.1,1.1,1.1h4.6c0.5,0,0.8-0.5,0.5-0.9l-2.8-4.2
			c-0.6-1-1.8-1.4-2.9-1.2l-8.2,1.8C190.2,55.4,196.5,54.3,196.5,54.3z"/>
		<path class="st0" d="M208.3,57c0.5,0,1,0.4,1,1v1.2c0,0.4,0.3,0.7,0.7,0.7h3c0.3,0,0.5-0.3,0.3-0.6l-1.8-2.7
			c-0.4-0.6-1.2-0.9-1.9-0.8l-5.3,1.2C204.1,57.7,208.3,57,208.3,57z"/>
		<path class="st0" d="M217,58.1c0.5,0,0.9,0.5,0.9,1l-0.1,1.2c0,0.4,0.3,0.7,0.6,0.7l2.8,0.1c0.3,0,0.5-0.3,0.3-0.6l-1.6-2.8
			c-0.4-0.6-1.1-1-1.7-0.8l-5,1C213.1,58.7,217,58.1,217,58.1z"/>
		<path class="st0" d="M225.1,60.8c0.4,0.1,0.8,0.5,0.7,1l-0.2,1.1c-0.1,0.3,0.2,0.7,0.5,0.7l2.5,0.4c0.2,0,0.4-0.2,0.3-0.5
			l-1.1-2.7c-0.3-0.6-0.9-1-1.5-0.9l-4.6,0.4C221.5,60.9,225.1,60.8,225.1,60.8z"/>
		<path class="st0" d="M180.7,52.1c0.3,0,0.6-0.1,0.9-0.3l2.4-1.6c0.2-0.2,0.6,0,0.6,0.3c0.1,1.2,0.3,3.8,1.1,3.8
			c1.1,0,5.6,0,5.6-1.1c0-0.8-2.6-3.7-4.3-5.4c-0.8-0.8-1.9-0.9-2.8-0.3c0,0-7.5,4.5-6.3,4.5C178.6,52.1,180.7,52.1,180.7,52.1z"/>
		<path class="st0" d="M300.1,10.6c-11.2,3.4-22.4,19.1-25.8,24.7S262,61,258.6,66.7c-3.4,5.6-5.6,4.5-7.9,4.5s-14.6-2.2-16.8-2.4
			c-2.2-0.1,0-2.1,0-2.1c0.1,0.1,0.1,0.1,0.2,0.1l2,0.3c0.2,0,0.4-0.2,0.3-0.4l-0.9-2.2c-0.2-0.5-0.7-0.8-1.2-0.8l-3.7,0.3
			c-0.1,0.5,2.8,0.4,2.8,0.4c0.4,0.1,0.6,0.4,0.5,0.8l-0.1,0.9c0,0.2,0,0.3,0.2,0.5c-0.1,0-6.7,0-7.9-0.5c-1.1-0.5,0-1.8,0-1.8
			s-3.4,0-6.7,0s-0.5-2.2-0.5-2.2s-4,0-7.4,0s-2.2-1.1-2.2-1.1s-5.6,0-11.2-1.1s-4.5-3.4-4.5-3.4s-11.2,0-13.5-1.1s-3.4-2.2-3.4-2.2
			s-1.1,0-4.5,1.1c-3.4,1.1-4.5,0-5.6-1.1s-4.5-3.4-4.5-3.4l-5.6,1.1c0,0-4.5,1.1-7.9-1.1c-3.4-2.2-6.7-1.1-6.7-1.1
			s-5.6,1.1-6.7,1.1s-4.5-1.1-5.6-2.2c-1.1-1.1-3.4-2.2-3.4-2.2s-2.2,2.2-9,2.2s-7.8-3.4-7.8-3.4s-2.2,3.4-5.6,4.5
			c-3.4,1.1-6.7,1.1-9,0s-3.4-3.4-3.4-3.4s-1.1,1.1-3.4,3.4c-2.2,2.2-4.5,1.1-6.7,1.1c-2.2,0-4.5-2.2-5.6-2.2s-2.2,1.1-2.2,1.1
			s-4.5,5.6-6.7,6.7c-2.2,1.1-7.8,2.2-7.8,2.2s-4.5,0-4.5-2.2s3.4-3.4,3.4-3.4s1.1,0,3.4-1.1c1.4-0.7,4.5-3.4,5.6-3.4
			c0.7,0,1,0.2,1.1,1.2c0.1,0.6-0.1,1.3-0.4,1.9l-0.7,1.4c1.1,0,5.6-3.4,6.7-4.5s3.4-2.2,0-3.4c-1.7-0.6-2.8-1.1-3.5-1.5
			c-0.7-0.4-1.5-0.3-2.1,0.1c-1.4,1.1-3.7,2.9-4.5,3.7c-1.1,1.1-3.4,3.4-4.5,4.5c-0.6,0.6-1.2,0.9-1.4,1c-0.7-0.3-2.6-0.8-5.3,0.1
			c-3.4,1.1-14.6,10.1-14.6,10.1h-4.5c0,0-2.2,4.5-6.7,7.8c-4.5,3.4-12.3,4.5-16.8,5.6s-6.7,4.5-6.7,4.5c0,1.1,1.1,2.2,2.2,3.4
			s3.4,1.1,3.4,1.1s2.2,1.1,5.6,3.4c3.4,2.2,4.5,4.5,4.5,3.4s-1.1-4.5-1.1-4.5s6.7,0,16.8,0S53.3,88,55.6,88
			c2.2,0,11.2,3.4,14.6,3.4c3.4,0,4.5,0,10.1-4.5s5.6-3.4,7.8-3.4s9,4.5,11.2,6.7c2.2,2.2,10.1,3.4,24.7,5.6s43.7,2.2,60.6,2.2
			s49.4-5.6,63.9-10.1c4.1-1.3,7.3-2.2,10-3.1c-0.2,0.2-0.3,0.4-0.2,0.4c0.5,0,2.1-0.8,4.4,0c2.2,0.7,2.3,1.6,2.3,1.6s0,0-2.3-0.8
			s-2.7,0.8-2.7,0.8s0.4,0,1.2,1.6c0.6,1.1,1,1.7,1.3,2c-0.2-0.2-0.6-0.6-1.3-1.3c-1.1-1.1-3.1-3.1-3.5-2.9c0,0-0.4,0.4-0.4,0.6
			c-0.1,0.8,0,1.6,0.8,3.1s0.8,0.8,2.3,3.1c1.6,2.3,0.8,2.3,3.1,2.3c2.3,0,2.3-1.6,4.7-2.3c2.3-0.8,4.7-0.8,5.5-1.6s1.1-3.1-1.4-4.7
			c-2.5-1.6-6.4-3.1-8-3.1c-0.8,0-2.3,0.2-3.5,0.4c5.7-1.9,9.6-3.3,16.8-6.2c11.2-4.5,18-16.8,18-16.8s-9-2.2-11.2-13.5
			s10.1-24.7,14.6-30.3s9-9,9-9S311.3,7.2,300.1,10.6z M32,79.5c-2.2,0-3.9-1.8-3.9-3.9s1.8-3.9,3.9-3.9s3.9,1.8,3.9,3.9
			C35.9,77.8,34.2,79.5,32,79.5z M258.6,75.6l0.5-0.8c0.1-0.1,0.2-0.1,0.2,0l0.5,0.8c0,0.1,0,0.1,0,0.2l-0.5,0.8
			c-0.1,0.1-0.2,0.1-0.2,0l-0.5-0.8C258.6,75.7,258.6,75.6,258.6,75.6z M255.9,75.8l0.5-0.8c0.1-0.1,0.2-0.1,0.2,0l0.5,0.8
			c0,0.1,0,0.1,0,0.2l-0.5,0.8c-0.1,0.1-0.2,0.1-0.2,0l-0.5-0.8C255.8,75.9,255.8,75.9,255.9,75.8z M251.8,76.1l0.7-1
			c0.1-0.1,0.2-0.1,0.3,0l0.7,1c0,0.1,0,0.2,0,0.2l-0.7,1c-0.1,0.1-0.2,0.1-0.3,0l-0.7-1C251.7,76.2,251.7,76.1,251.8,76.1z
			 M247,76.4l0.9-1.4c0.1-0.2,0.3-0.2,0.4,0l0.9,1.4c0.1,0.1,0.1,0.2,0,0.3l-0.9,1.4c-0.1,0.2-0.3,0.2-0.4,0l-0.9-1.4
			C246.9,76.6,246.9,76.5,247,76.4z M243.4,76.6l0.9-1.4c0.1-0.2,0.3-0.2,0.4,0l0.9,1.4c0.1,0.1,0.1,0.2,0,0.3l-0.9,1.4
			c-0.1,0.2-0.3,0.2-0.4,0l-0.9-1.4C243.4,76.8,243.4,76.7,243.4,76.6z M238.9,77.5l1.1-1.7c0.1-0.2,0.4-0.2,0.5,0l1.1,1.7
			c0.1,0.1,0.1,0.2,0,0.3l-1.1,1.7c-0.1,0.2-0.4,0.2-0.5,0l-1.1-1.7C238.8,77.8,238.8,77.6,238.9,77.5z M234.4,77.5l1.1-1.7
			c0.1-0.2,0.4-0.2,0.5,0l1.1,1.7c0.1,0.1,0.1,0.2,0,0.3l-1.1,1.7c-0.1,0.2-0.4,0.2-0.5,0l-1.1-1.7
			C234.3,77.8,234.3,77.6,234.4,77.5z M229.9,77.5l1.1-1.7c0.1-0.2,0.4-0.2,0.5,0l1.1,1.7c0.1,0.1,0.1,0.2,0,0.3l-1.1,1.7
			c-0.1,0.2-0.4,0.2-0.5,0l-1.1-1.7C229.9,77.8,229.9,77.6,229.9,77.5z M224.9,77.4l1.1-1.7c0.1-0.2,0.4-0.2,0.5,0l1.1,1.7
			c0.1,0.1,0.1,0.2,0,0.3l-1.1,1.7c-0.1,0.2-0.4,0.2-0.5,0l-1.1-1.7C224.9,77.6,224.9,77.5,224.9,77.4z M220.4,76.7l1.1-1.7
			c0.1-0.2,0.4-0.2,0.5,0l1.1,1.7c0.1,0.1,0.1,0.2,0,0.3l-1.1,1.7c-0.1,0.2-0.4,0.2-0.5,0l-1.1-1.7
			C220.4,76.9,220.4,76.8,220.4,76.7z M214.6,76.2l1.4-2c0.1-0.2,0.5-0.2,0.6,0l1.4,2c0.1,0.1,0.1,0.3,0,0.4l-1.4,2
			c-0.1,0.2-0.5,0.2-0.6,0l-1.4-2C214.5,76.5,214.5,76.3,214.6,76.2z M209.1,75.8l1.4-2c0.1-0.2,0.5-0.2,0.6,0l1.4,2
			c0.1,0.1,0.1,0.3,0,0.4l-1.4,2c-0.1,0.2-0.5,0.2-0.6,0l-1.4-2C209,76.1,209,75.9,209.1,75.8z M203.1,75.6l1.4-2.2
			c0.2-0.2,0.5-0.2,0.7,0l1.4,2.2c0.1,0.1,0.1,0.3,0,0.4l-1.4,2.2c-0.2,0.2-0.5,0.2-0.7,0l-1.4-2.2C203,75.9,203,75.7,203.1,75.6z
			 M197.5,74.5l1.4-2.2c0.2-0.2,0.5-0.2,0.7,0l1.4,2.2c0.1,0.1,0.1,0.3,0,0.4l-1.4,2.2c-0.2,0.2-0.5,0.2-0.7,0l-1.4-2.2
			C197.4,74.8,197.4,74.6,197.5,74.5z M191.9,74.5l1.4-2.2c0.2-0.2,0.5-0.2,0.7,0l1.4,2.2c0.1,0.1,0.1,0.3,0,0.4l-1.4,2.2
			c-0.2,0.2-0.5,0.2-0.7,0l-1.4-2.2C191.8,74.8,191.8,74.6,191.9,74.5z M185.8,73.3l1.8-2.7c0.2-0.3,0.6-0.3,0.8,0l1.8,2.7
			c0.1,0.2,0.1,0.4,0,0.6l-1.8,2.7c-0.2,0.3-0.6,0.3-0.8,0l-1.8-2.7C185.7,73.7,185.7,73.4,185.8,73.3z M179.1,72.2l1.8-2.7
			c0.2-0.3,0.6-0.3,0.8,0l1.8,2.7c0.1,0.2,0.1,0.4,0,0.6l-1.8,2.7c-0.2,0.3-0.6,0.3-0.8,0l-1.8-2.7C179,72.6,179,72.3,179.1,72.2z
			 M172.4,71l1.8-2.7c0.2-0.3,0.6-0.3,0.8,0l1.8,2.7c0.1,0.2,0.1,0.4,0,0.6l-1.8,2.7c-0.2,0.3-0.6,0.3-0.8,0l-1.8-2.7
			C172.2,71.4,172.2,71.2,172.4,71z M165.5,71l1.9-2.9c0.2-0.3,0.7-0.3,0.9,0l1.9,2.9c0.1,0.2,0.1,0.4,0,0.6l-1.9,2.9
			c-0.2,0.3-0.7,0.3-0.9,0l-1.9-2.9C165.4,71.4,165.4,71.2,165.5,71z M158.8,69.9l1.9-2.9c0.2-0.3,0.7-0.3,0.9,0l1.9,2.9
			c0.1,0.2,0.1,0.4,0,0.6l-1.9,2.9c-0.2,0.3-0.7,0.3-0.9,0l-1.9-2.9C158.6,70.3,158.6,70.1,158.8,69.9z M152.6,68.8l1.9-2.9
			c0.2-0.3,0.7-0.3,0.9,0l1.9,2.9c0.1,0.2,0.1,0.4,0,0.6l-1.9,2.9c-0.2,0.3-0.7,0.3-0.9,0l-1.9-2.9C152.4,69.2,152.4,69,152.6,68.8z
			 M144.9,67.6l2.2-3.3c0.2-0.4,0.8-0.4,1,0l2.2,3.3c0.1,0.2,0.1,0.5,0,0.7l-2.2,3.3c-0.2,0.4-0.8,0.4-1,0l-2.2-3.3
			C144.8,68.1,144.8,67.8,144.9,67.6z M137.1,66.4l2.2-3.3c0.2-0.4,0.8-0.4,1,0l2.2,3.3c0.1,0.2,0.1,0.5,0,0.7l-2.2,3.3
			c-0.2,0.4-0.8,0.4-1,0l-2.2-3.3C137,66.9,137,66.6,137.1,66.4z M129.3,66.4l2.3-3.5c0.3-0.4,0.8-0.4,1.1,0l2.3,3.5
			c0.1,0.2,0.1,0.5,0,0.7l-2.3,3.5c-0.3,0.4-0.8,0.4-1.1,0l-2.3-3.5C129.2,66.9,129.2,66.6,129.3,66.4z M121.1,65.2l2.3-3.5
			c0.3-0.4,0.8-0.4,1.1,0l2.3,3.5c0.2,0.2,0.2,0.5,0,0.7l-2.3,3.5c-0.3,0.4-0.8,0.4-1.1,0l-2.3-3.5
			C120.9,65.8,120.9,65.5,121.1,65.2z M113.3,64.1l2.6-3.8c0.3-0.4,0.9-0.4,1.2,0l2.6,3.8c0.2,0.2,0.2,0.6,0,0.8l-2.6,3.8
			c-0.3,0.4-0.9,0.4-1.2,0l-2.6-3.8C113.2,64.7,113.2,64.3,113.3,64.1z M105.7,62.7l2.6-3.8c0.3-0.4,0.9-0.4,1.2,0l2.6,3.8
			c0.2,0.2,0.2,0.5,0,0.8l-2.6,3.8c-0.3,0.4-0.9,0.4-1.2,0l-2.6-3.8C105.6,63.3,105.6,63,105.7,62.7z M98,61.9l2.3-3.5
			c0.2-0.4,0.8-0.4,1.1,0l2.3,3.5c0.1,0.2,0.1,0.5,0,0.7l-2.3,3.5c-0.2,0.4-0.8,0.4-1.1,0L98,62.6C97.8,62.4,97.8,62.1,98,61.9z
			 M90.9,61.8l2.3-3.5c0.2-0.4,0.8-0.4,1.1,0l2.3,3.5c0.1,0.2,0.1,0.5,0,0.7l-2.3,3.5c-0.2,0.4-0.8,0.4-1.1,0l-2.3-3.5
			C90.8,62.3,90.8,62,90.9,61.8z M42.1,73.4C45.5,61,61.2,61,61.2,61s-5.6,0-10.1,3.4c-4.5,3.4-6.7,5.6-6.7,10.1
			c0,1.1,1.1,1.1,1.1,1.1s3.4-4.5,5.6-5.6s5.6-3.4,5.6-2.2c0,1.1,0,4.5,2.2,6.7S69,75.6,69,75.6s-5.6,6.7-10.1,7.8
			S38.7,85.7,42.1,73.4z M81.3,81.2c0,0,0-1.1-2.2-2.2c-0.2-0.1-0.5-0.2-0.7-0.3c0.1,1.1,0.1,2.5-0.4,3.7c-0.5,1-1.1,1.1-1.1,1.1
			s0,0,0-1.1s-1.1-2.2-1.1-2.2h-0.1c-0.1,1.7-0.3,3.8-1.1,4.5c-1.1,1.1-6.7,1.1-5.6,0c0.9-0.9,3.1-3.1,4-4c-1.2,0.6-2.6,1.3-4,1.8
			c-3.4,1.1-7.8,1.1-7.8,1.1s4.5,0,9-3.4c4.5-3.4,6.7-6.7,7.8-6.7c1.6,0,3.4,4.5,3.4,6.7C81.3,81.2,81.3,81.2,81.3,81.2z M72.5,67.7
			c-5.6,0.3-9.3,1.9-10.3,1.3c-1.3-0.9-0.3-5.6,0.9-7.5c0.6-0.9,0.6-0.9,0.6-0.9s-0.6,0.9,0.6,3.1c0.1,0.2,0.3,0.4,0.4,0.6
			c0.5-1,1.3-2.2,2.4-2.8c1-0.6,1.6-0.3,1.6-0.3s0,0-0.6,0.9s-0.3,2.5-0.3,2.5l0.1,0c1-1.4,2.4-3,3.4-3.2c1.6-0.3,6.2,2.8,4.7,3.1
			c-1.2,0.2-4.2,0.9-5.6,1.1c1.3,0.1,2.9,0.3,4.3,0.7c3.4,0.9,7.2,3.4,7.2,3.4S78.1,67.3,72.5,67.7z M82,62.8L80.6,65
			c-0.2,0.2-0.5,0.2-0.7,0l-1.4-2.2c-0.1-0.1-0.1-0.3,0-0.4l1.4-2.2c0.2-0.2,0.5-0.2,0.7,0l1.4,2.2C82.1,62.5,82.1,62.7,82,62.8z
			 M84.7,61.9l1.8-2.7c0.2-0.3,0.6-0.3,0.8,0l1.8,2.7c0.1,0.2,0.1,0.4,0,0.6l-1.8,2.7c-0.2,0.3-0.6,0.3-0.8,0l-1.8-2.7
			C84.6,62.3,84.6,62.1,84.7,61.9z M199.1,91.3c-33.7,1.1-40.4,1.1-67.3-3.4c-5.8-1-21.3-4.5-29.2-7.8c-6.8-2.9-17.6-8.8-17.9-8.9
			c0,0,0,0,0,0s0,0,0,0c0,0,0,0,0,0c0,0,6.2,2.6,7.8,3.3c1.5,0.7,14.6,5.6,19.1,6.7c20.1,5,35.9,7.4,59.5,7.8c55,1.1,83-6.7,83-6.7
			l9-2.2C263.1,80.1,232.8,90.2,199.1,91.3z M288.9,63.3C289,63.1,289.1,63,288.9,63.3C288.9,63.3,288.9,63.3,288.9,63.3z
			 M279.9,50.9c0.6,5.6,4,7.9,6.5,9.3c-1.5,0.6-4,1.3-7.1,1.3c-5.6,0-7.9,0-7.9,0s9.8,0.9,14.3,0.3c-1.1,0.5-2.5,1-3.6,1.4
			c-3.4,1.1-7.9,1.1-7.9,1.1s9,0,12.3-1.1c1.3-0.4,1.5,0.1,1.9,0.1c-1.6,0.5-4.4,1.5-7.5,2.1c-5.6,1.1-6.7,1.1-6.7,1.1
			s7.7,0,12.2-1.1c-0.5,0.5-1,1-1.6,1.5c-1.3,0.4-2.9,0.7-4.9,0.7c-5-0.1-7-0.2-7-0.2s6.2,0.8,10.6,0.7c-0.6,0.6-1.3,1.2-2,1.8
			c-0.9,0.2-2,0.4-2.9,0.6c-3,0.4-6.7-0.4-6.7-0.4s4.9,1.1,8.1,1.2c-0.7,0.6-1.4,1.2-2.1,1.7c-0.9,0.1-2.3,0.2-3.4,0.3
			c-2.4,0-4.9-1.3-4.9-1.3s4.2,2.2,6.6,2.2c-0.8,0.6-1.5,1-2.1,1.3c-4.5,2.2-6.7,4.5-7.9,2.2c-1.1-2.2-1.6-8.7,3.4-23.6
			c5.6-16.8,19.1-31.4,19.1-31.4S278.8,39.7,279.9,50.9z"/>
	</g>
</g>
<g id="Слой_2_00000147191766226649344830000012802254760475012521_">
</g>
</svg>
